<?xml version="1.0" ?><!DOCTYPE svg  PUBLIC '-//W3C//DTD SVG 1.1//EN'  'http://www.w3.org/Graphics/SVG/1.1/DTD/svg11.dtd'><svg enable-background="new 0 0 128 128" id="Слой_1" version="1.1" viewBox="0 0 128 128" xml:space="preserve" xmlns="http://www.w3.org/2000/svg" xmlns:xlink="http://www.w3.org/1999/xlink"><g><g><g><path d="M49.5,96L14.8,76c-3.2-1.8-4.3-5.9-2.4-9.1L45.7,9.2c1.8-3.2,5.9-4.3,9.1-2.4l40.4,23.3     c3.2,1.8,4.3,5.9,2.4,9.1l-30,52L49.5,96z" fill="#E5F3F0"/></g><g opacity="0.15"><path d="M67.7,91.1l13.6-23.5H39.2c-8.8,0-16.8,3.7-22.4,9.5L49.5,96L67.7,91.1z" fill="#62345B"/></g><g><g><path d="M47,13.7c1.8-3.2,5.9-4.3,9.1-2.4l41.4,21.6c0.8,0.5,0.5,2.9,1.1,3.6c0.3-2.5-1-5.1-3.3-6.4L54.8,6.7      c-3.2-1.8-7.3-0.7-9.1,2.4L12.4,66.9c-1.4,2.3-1.1,5.2,0.4,7.2c0.1-0.9-1.4-2.8-0.9-3.7L47,13.7z" fill="#FFFFFF"/></g></g><g><rect fill="#F2F2AA" height="46.7" transform="matrix(-0.5 0.866 -0.866 -0.5 128.5117 3.0022)" width="33.3" x="46.7" y="15.3"/></g><g opacity="0.5"><polygon fill="#F8F7FB" points="75.3,64.7 51.5,12.5 91.9,35.8    "/></g><g><circle cx="52" cy="78.2" fill="#EAE6EC" r="2"/></g><g><circle cx="61.2" cy="75.8" fill="#EAE6EC" r="2"/></g><g><path d="M49.5,97.5c-0.3,0-0.5-0.1-0.8-0.2l-34.6-20c-1.9-1.1-3.2-2.9-3.8-5c-0.6-2.1-0.3-4.3,0.8-6.2L44.4,8.4     c1.5-2.5,4.2-4.1,7.1-4.1c1.4,0,2.8,0.4,4.1,1.1L96,28.8c1.9,1.1,3.2,2.9,3.8,5c0.6,2.1,0.3,4.3-0.8,6.2l-30,52     c-0.2,0.3-0.5,0.6-0.9,0.7l-18.2,4.9C49.8,97.5,49.6,97.5,49.5,97.5z M51.5,7.3c-1.8,0-3.6,1-4.5,2.6L13.7,67.7     c-1.4,2.5-0.6,5.6,1.9,7.1l34.1,19.7l17-4.6l29.7-51.4c0.7-1.2,0.9-2.6,0.5-3.9c-0.4-1.3-1.2-2.4-2.4-3.1L54.1,8     C53.3,7.6,52.4,7.3,51.5,7.3z" fill="#AF9BAC"/></g><g><path d="M75.3,66.2c-0.3,0-0.5-0.1-0.8-0.2L34.1,42.7c-0.3-0.2-0.6-0.5-0.7-0.9c-0.1-0.4,0-0.8,0.2-1.1l16.7-28.9     c0.4-0.7,1.3-1,2-0.5l40.4,23.3c0.3,0.2,0.6,0.5,0.7,0.9c0.1,0.4,0,0.8-0.2,1.1L76.6,65.4c-0.2,0.3-0.5,0.6-0.9,0.7     C75.5,66.2,75.4,66.2,75.3,66.2z M36.9,40.8l37.8,21.8l15.2-26.3L52.1,14.5L36.9,40.8z" fill="#AF9BAC"/></g><g><path d="M33.1,72.6c-0.3,0-0.5-0.1-0.7-0.2c-0.7-0.4-1-1.3-0.5-2l6.7-11.5c0.4-0.7,1.3-1,2-0.5     c0.7,0.4,1,1.3,0.5,2l-6.7,11.5C34.1,72.4,33.6,72.6,33.1,72.6z" fill="#AF9BAC"/></g><g><path d="M42.2,70.2c-0.3,0-0.5-0.1-0.7-0.2l-11.5-6.7c-0.7-0.4-1-1.3-0.5-2c0.4-0.7,1.3-1,2-0.5l11.5,6.7     c0.7,0.4,1,1.3,0.5,2C43.2,69.9,42.7,70.2,42.2,70.2z" fill="#AF9BAC"/></g><g><path d="M52,81.7c-0.6,0-1.2-0.2-1.7-0.5c-1.7-1-2.2-3.1-1.3-4.8c0.6-1.1,1.8-1.8,3-1.8c0.6,0,1.2,0.2,1.7,0.5     c0.8,0.5,1.4,1.2,1.6,2.1c0.2,0.9,0.1,1.8-0.4,2.7C54.5,81.1,53.3,81.7,52,81.7z M52.1,77.7c-0.2,0-0.3,0.1-0.4,0.3     c-0.1,0.2-0.1,0.5,0.2,0.7c0.2,0.1,0.5,0,0.7-0.2c0.1-0.2,0.1-0.3,0.1-0.4c0-0.1-0.1-0.2-0.2-0.3C52.2,77.8,52.1,77.7,52.1,77.7z     " fill="#AF9BAC"/></g><g><path d="M61.2,79.3c-0.6,0-1.2-0.2-1.7-0.5c-1.7-1-2.2-3.1-1.3-4.8c0.6-1.1,1.8-1.8,3-1.8c0.6,0,1.2,0.2,1.7,0.5     c1.7,1,2.2,3.1,1.3,4.8C63.6,78.6,62.4,79.3,61.2,79.3z M61.2,75.3c-0.2,0-0.3,0.1-0.4,0.3c-0.1,0.2-0.1,0.5,0.2,0.7     c0.2,0.1,0.5,0,0.7-0.2c0.1-0.2,0.1-0.5-0.2-0.7C61.3,75.3,61.2,75.3,61.2,75.3z" fill="#AF9BAC"/></g></g><g><g><g><path d="M98.8,73.6c0,0-58.8,0-59.6,0C25.3,73.6,14,84.9,14,98.8c0,13.9,11.3,25.2,25.2,25.2      c9,0,17-4.8,21.4-11.9h16.7c4.4,7.2,12.4,11.9,21.4,11.9c13.9,0,25.2-11.3,25.2-25.2C124,84.9,112.7,73.6,98.8,73.6z" fill="#EAE6EC"/></g><g><g><path d="M17.7,101.5c0-13.9,11.3-25.2,25.2-25.2c0.8,0,59.6,0,59.6,0c4.8,0,9.4,1.4,13.2,3.7       c-4.5-4-10.4-6.5-16.9-6.5c0,0-58.8,0-59.6,0C25.3,73.6,14,84.9,14,98.8c0,9.1,4.8,17,12,21.5C20.9,115.6,17.7,109,17.7,101.5z       " fill="#FFFFFF"/></g><g opacity="0.1"><path d="M57,109.3c-4.4,7.2-12.4,11.9-21.4,11.9c-4.8,0-9.4-1.4-13.2-3.7c4.5,4,10.4,6.5,16.9,6.5       c9,0,17-4.8,21.4-11.9h16.9c-0.7-0.9-1.4-1.8-2-2.8H57z" fill="#0C0F13"/></g></g><g><circle cx="98.8" cy="89.6" fill="#FFFFFF" r="2.8"/></g><g><circle cx="98.8" cy="108" fill="#FFFFFF" r="2.8"/></g><g><circle cx="108" cy="98.8" fill="#FFFFFF" r="2.8"/></g><g><circle cx="89.6" cy="98.8" fill="#FFFFFF" r="2.8"/></g><g><circle cx="39.2" cy="98.8" fill="#ADA2B5" r="16"/></g></g><g><g><path d="M98.8,125.5c-9,0-17.3-4.4-22.2-11.9H61.4c-5,7.5-13.2,11.9-22.2,11.9c-14.7,0-26.7-12-26.7-26.7      s12-26.7,26.7-26.7h59.6c14.7,0,26.7,12,26.7,26.7S113.5,125.5,98.8,125.5z M60.6,110.6h16.7c0.5,0,1,0.3,1.3,0.7      c4.4,7,11.9,11.2,20.1,11.2c13.1,0,23.7-10.6,23.7-23.7s-10.6-23.7-23.7-23.7H39.2c-13.1,0-23.7,10.6-23.7,23.7      s10.6,23.7,23.7,23.7c8.2,0,15.8-4.2,20.1-11.2C59.6,110.9,60.1,110.6,60.6,110.6z" fill="#62355C"/></g><g><path d="M80.5,84.2H57.5c-0.8,0-1.5-0.7-1.5-1.5s0.7-1.5,1.5-1.5h22.9c0.8,0,1.5,0.7,1.5,1.5      S81.3,84.2,80.5,84.2z" fill="#62355C"/></g><g><path d="M39.2,107.2c-0.8,0-1.5-0.7-1.5-1.5V91.9c0-0.8,0.7-1.5,1.5-1.5s1.5,0.7,1.5,1.5v13.8      C40.7,106.5,40,107.2,39.2,107.2z" fill="#62355C"/></g><g><path d="M70.8,107.2c-0.3,0-0.5-0.1-0.7-0.2c-0.7-0.4-1-1.3-0.5-2l3.2-5.6c0.4-0.7,1.3-1,2-0.5      c0.7,0.4,1,1.3,0.5,2l-3.2,5.6C71.9,106.9,71.4,107.2,70.8,107.2z" fill="#62355C"/></g><g><path d="M65.3,107.2c-0.3,0-0.5-0.1-0.7-0.2c-0.7-0.4-1-1.3-0.5-2l3.2-5.6c0.4-0.7,1.3-1,2-0.5      c0.7,0.4,1,1.3,0.5,2l-3.2,5.6C66.4,106.9,65.9,107.2,65.3,107.2z" fill="#62355C"/></g><g><path d="M46.1,100.3H32.3c-0.8,0-1.5-0.7-1.5-1.5s0.7-1.5,1.5-1.5h13.8c0.8,0,1.5,0.7,1.5,1.5      S46.9,100.3,46.1,100.3z" fill="#62355C"/></g><g><path d="M98.8,93.9c-2.3,0-4.2-1.9-4.2-4.2s1.9-4.2,4.2-4.2s4.2,1.9,4.2,4.2S101.1,93.9,98.8,93.9z M98.8,88.4      c-0.7,0-1.2,0.6-1.2,1.2s0.6,1.2,1.2,1.2s1.2-0.6,1.2-1.2S99.5,88.4,98.8,88.4z" fill="#62355C"/></g><g><path d="M98.8,112.2c-2.3,0-4.2-1.9-4.2-4.2s1.9-4.2,4.2-4.2s4.2,1.9,4.2,4.2S101.1,112.2,98.8,112.2z       M98.8,106.7c-0.7,0-1.2,0.6-1.2,1.2s0.6,1.2,1.2,1.2s1.2-0.6,1.2-1.2S99.5,106.7,98.8,106.7z" fill="#62355C"/></g><g><path d="M108,103c-2.3,0-4.2-1.9-4.2-4.2s1.9-4.2,4.2-4.2s4.2,1.9,4.2,4.2S110.3,103,108,103z M108,97.5      c-0.7,0-1.2,0.6-1.2,1.2s0.6,1.2,1.2,1.2s1.2-0.6,1.2-1.2S108.6,97.5,108,97.5z" fill="#62355C"/></g><g><path d="M89.6,103c-2.3,0-4.2-1.9-4.2-4.2s1.9-4.2,4.2-4.2s4.2,1.9,4.2,4.2S92,103,89.6,103z M89.6,97.5      c-0.7,0-1.2,0.6-1.2,1.2s0.6,1.2,1.2,1.2s1.2-0.6,1.2-1.2S90.3,97.5,89.6,97.5z" fill="#62355C"/></g><g><path d="M39.2,116.3c-9.7,0-17.5-7.9-17.5-17.5c0-9.7,7.9-17.5,17.5-17.5c9.7,0,17.5,7.9,17.5,17.5      C56.8,108.5,48.9,116.3,39.2,116.3z M39.2,84.2c-8,0-14.5,6.5-14.5,14.5c0,8,6.5,14.5,14.5,14.5c8,0,14.5-6.5,14.5-14.5      C53.8,90.8,47.2,84.2,39.2,84.2z" fill="#62355C"/></g></g></g></g></svg>